<?xml version="1.0" standalone="no"?>
<!DOCTYPE svg PUBLIC "-//W3C//DTD SVG 20010904//EN"
 "http://www.w3.org/TR/2001/REC-SVG-20010904/DTD/svg10.dtd">
<svg version="1.0" xmlns="http://www.w3.org/2000/svg"
 width="512.000000pt" height="512.000000pt" viewBox="0 0 512.000000 512.000000"
 preserveAspectRatio="xMidYMid meet">

<g transform="translate(0.000000,512.000000) scale(0.100000,-0.100000)"
fill="#fff" stroke="none">
<path d="M2829 5105 c-18 -10 -334 -493 -989 -1512 -530 -824 -969 -1513 -977
-1531 -19 -46 -2 -97 41 -123 30 -18 57 -19 629 -19 l597 0 0 -910 c0 -997 -2
-963 59 -994 37 -20 64 -20 100 -1 21 10 278 403 991 1512 530 824 969 1513
977 1531 19 46 2 97 -41 123 -30 18 -57 19 -628 19 l-598 0 0 910 c0 997 2
963 -59 994 -37 20 -68 20 -102 1z"/>
</g>
</svg>
