<svg xmlns="http://www.w3.org/2000/svg" width="17.105" height="17.105" viewBox="0 0 17.105 17.105">
  <path id="plus-solid_1_" data-name="plus-solid (1)" d="M15.884,38.72h-5.5v-5.5A1.222,1.222,0,0,0,9.164,32H7.942A1.222,1.222,0,0,0,6.72,33.222v5.5h-5.5A1.222,1.222,0,0,0,0,39.942v1.222a1.222,1.222,0,0,0,1.222,1.222h5.5v5.5a1.222,1.222,0,0,0,1.222,1.222H9.164a1.222,1.222,0,0,0,1.222-1.222v-5.5h5.5a1.222,1.222,0,0,0,1.222-1.222V39.942A1.222,1.222,0,0,0,15.884,38.72Z" transform="translate(0 -32)" fill="#fbf8f8"/>
</svg>
