<?xml version="1.0" encoding="utf-8"?>
<!-- Generator: Adobe Illustrator 16.0.0, SVG Export Plug-In . SVG Version: 6.00 Build 0)  -->
<!DOCTYPE svg PUBLIC "-//W3C//DTD SVG 1.1//EN" "http://www.w3.org/Graphics/SVG/1.1/DTD/svg11.dtd">
<svg version="1.1" id="Layer_1" xmlns="http://www.w3.org/2000/svg" xmlns:xlink="http://www.w3.org/1999/xlink" x="0px" y="0px"
	 width="3577.139px" height="3364.574px" viewBox="0 0 3577.139 3364.574" enable-background="new 0 0 3577.139 3364.574"
	 xml:space="preserve">
<path fill-rule="evenodd" clip-rule="evenodd" fill="#87D8B5" d="M1045.242,2018.604c29.313,176.174,35.525,397.718,282.054,397.718
	h1424.03c233.357,0,242.718-193.769,283.603-357.583l299.016-1195.947H852.56L1045.242,2018.604z"/>
<path fill-rule="evenodd" clip-rule="evenodd" fill="#00DC82" d="M2088.431,1367.797
	c-199.143,344.92-324.651,704.542-379.248,1048.534h1042.142c233.357,0,242.712-193.777,283.603-357.592l299.016-1195.947h-886.045
	C2316.645,1013.547,2195.391,1182.533,2088.431,1367.797z"/>
<path fill-rule="evenodd" clip-rule="evenodd" fill="#001E26" d="M2495.472,2861.536c-138.855,0-251.537,112.68-251.537,251.537
	c0,138.826,112.682,251.501,251.537,251.501c138.83,0,251.476-112.675,251.476-251.501
	C2747.007,2974.216,2634.267,2861.536,2495.472,2861.536z"/>
<path fill-rule="evenodd" clip-rule="evenodd" fill="#001E26" d="M1531.965,2861.536c-138.824,0-251.537,112.68-251.537,251.537
	c0.033,138.826,112.681,251.501,251.537,251.501c138.858,0,251.504-112.675,251.504-251.501
	C1783.501,2974.216,1670.824,2861.536,1531.965,2861.536z"/>
<path fill-rule="evenodd" clip-rule="evenodd" fill="#001E26" d="M3469.944,633.501H842.36l-70.695-524.815
	C761.451,32.643,719.063,0,643.835,0H125.774C56.263,0,0,56.392,0,125.832c0,69.479,56.228,125.766,125.774,125.766l410.13-0.026
	l293.865,1788.251c48.985,307.797,119.464,605.847,519.416,605.847l1383.363-0.026c405.045,0,449.565-289.057,522.255-579.921
	L3563.38,831.366C3587.248,735.962,3593.12,633.501,3469.944,633.501z M3218.936,1203.111h-1711.9
	c-69.192,0-125.737,56.573-125.737,125.739v0.061c0,69.166,56.544,125.737,125.737,125.737h1649.018l-71.784,287.181H1814.553
	c-69.134,0-125.704,56.578-125.704,125.738v0.092c0,69.164,56.57,125.709,125.704,125.709H3021.35l-13.338,53.389
	c-39.736,159.126-48.822,347.376-275.499,347.376H1349.185c-239.477,0-245.51-215.234-273.999-386.364L888.037,885.005h2410.44
	L3218.936,1203.111z"/>
</svg>
